<?xml version="1.0" encoding="UTF-8"?>
<!DOCTYPE svg PUBLIC "-//W3C//DTD SVG 1.1//EN" "http://www.w3.org/Graphics/SVG/1.1/DTD/svg11.dtd">
<svg xmlns="http://www.w3.org/2000/svg" xmlns:xlink="http://www.w3.org/1999/xlink" version="1.1" width="1655px" height="795px" viewBox="0 0 1655 795"><defs></defs><g><g data-cell-id="0"><g data-cell-id="1"><g data-cell-id="23"><g><path d="M 872.51 118.34 L 581.48 165.6" fill="none" stroke="#000000" stroke-width="4" stroke-miterlimit="10" pointer-events="stroke"/></g></g><g data-cell-id="27"><g><path d="M 884.63 141.17 L 789.36 242.82" fill="none" stroke="#000000" stroke-width="4" stroke-miterlimit="10" pointer-events="stroke"/></g></g><g data-cell-id="28"><g><path d="M 932.92 146.09 L 1001.14 257.87" fill="none" stroke="#000000" stroke-width="4" stroke-miterlimit="10" pointer-events="stroke"/></g></g><g data-cell-id="29"><g><path d="M 951.43 118.71 L 1282.57 175.27" fill="none" stroke="#000000" stroke-width="4" stroke-miterlimit="10" pointer-events="stroke"/></g></g><g data-cell-id="51"><g><path d="M 928.25 75.45 L 952 22" fill="none" stroke="#000000" stroke-width="4" stroke-miterlimit="10" pointer-events="stroke"/></g></g><g data-cell-id="4"><g><ellipse cx="912" cy="112" rx="40" ry="40" fill="#d4d4d4" stroke="#000000" stroke-width="4" pointer-events="all"/></g></g><g data-cell-id="24"><g><path d="M 508.51 193.87 L 345.5 300.15" fill="none" stroke="#000000" stroke-opacity="0.3" stroke-width="4" stroke-miterlimit="10" pointer-events="stroke"/></g></g><g data-cell-id="25"><g><path d="M 536.41 211.61 L 517.66 342.4" fill="none" stroke="#000000" stroke-opacity="0.7" stroke-width="4" stroke-miterlimit="10" pointer-events="stroke"/></g></g><g data-cell-id="5"><g><ellipse cx="542" cy="172" rx="40" ry="40" fill="#d4d4d4" stroke="#000000" stroke-width="4" pointer-events="all"/></g></g><g data-cell-id="30"><g><path d="M 738.6 304.44 L 655.42 419.57" fill="none" stroke="#000000" stroke-opacity="0.3" stroke-width="4" stroke-miterlimit="10" pointer-events="stroke"/></g></g><g data-cell-id="31"><g><path d="M 765.75 311.82 L 778.21 442.18" fill="none" stroke="#000000" stroke-opacity="0.3" stroke-width="4" stroke-miterlimit="10" pointer-events="stroke"/></g></g><g data-cell-id="6"><g><ellipse cx="762" cy="272" rx="40" ry="40" fill="#d4d4d4" stroke="#000000" stroke-width="4" pointer-events="all"/></g></g><g data-cell-id="32"><g><path d="M 1034.01 330.15 L 1079.87 473.88" fill="none" stroke="#000000" stroke-opacity="0.3" stroke-width="4" stroke-miterlimit="10" pointer-events="stroke"/></g></g><g data-cell-id="33"><g><path d="M 984.29 304.94 L 929.74 413.22" fill="none" stroke="#000000" stroke-opacity="0.3" stroke-width="4" stroke-miterlimit="10" pointer-events="stroke"/></g></g><g data-cell-id="7"><g><ellipse cx="1022" cy="292" rx="40" ry="40" fill="#d4d4d4" stroke="#000000" stroke-width="4" pointer-events="all"/></g></g><g data-cell-id="36"><g><path d="M 1352.31 208.1 L 1581.7 405.88" fill="none" stroke="#000000" stroke-opacity="0.3" stroke-width="4" stroke-miterlimit="10" pointer-events="stroke"/></g></g><g data-cell-id="37"><g><path d="M 1322 222 L 1322 322" fill="none" stroke="#000000" stroke-opacity="0.7" stroke-width="4" stroke-miterlimit="10" pointer-events="stroke"/></g></g><g data-cell-id="8"><g><ellipse cx="1322" cy="182" rx="40" ry="40" fill="#d4d4d4" stroke="#000000" stroke-width="4" pointer-events="all"/></g></g><g data-cell-id="45"><g><path d="M 278.67 344.12 L 195.28 399.81" fill="none" stroke="#000000" stroke-opacity="0.3" stroke-width="4" stroke-miterlimit="10" stroke-dasharray="12 12" pointer-events="stroke"/></g></g><g data-cell-id="46"><g><path d="M 315.98 361.8 L 328.02 482.2" fill="none" stroke="#000000" stroke-opacity="0.3" stroke-width="4" stroke-miterlimit="10" stroke-dasharray="12 12" pointer-events="stroke"/></g></g><g data-cell-id="9"><g><ellipse cx="312" cy="322" rx="40" ry="40" fill-opacity="0.3" fill="#d4d4d4" stroke="#000000" stroke-opacity="0.3" stroke-width="4" pointer-events="all"/></g></g><g data-cell-id="10"><g><ellipse cx="492" cy="662" rx="40" ry="40" fill-opacity="0.3" fill="#ffffff" stroke="#000000" stroke-opacity="0.3" stroke-width="4" pointer-events="all"/></g></g><g data-cell-id="26"><g><path d="M 509.17 421.9 L 494.85 622.1" fill="none" stroke="#000000" stroke-opacity="0.3" stroke-width="4" stroke-miterlimit="10" stroke-dasharray="12 12" pointer-events="stroke"/></g></g><g data-cell-id="11"><g><ellipse cx="512" cy="382" rx="40" ry="40" fill-opacity="0.3" fill="#d4d4d4" stroke="#000000" stroke-opacity="0.3" stroke-width="4" pointer-events="all"/></g></g><g data-cell-id="12"><g><ellipse cx="632" cy="452" rx="40" ry="40" fill-opacity="0.3" fill="#d4d4d4" stroke="#000000" stroke-opacity="0.3" stroke-width="4" pointer-events="all"/></g></g><g data-cell-id="13"><g><ellipse cx="782" cy="482" rx="40" ry="40" fill-opacity="0.3" fill="#ffffff" stroke="#000000" stroke-opacity="0.3" stroke-width="4" pointer-events="all"/></g></g><g data-cell-id="14"><g><ellipse cx="1092" cy="512" rx="40" ry="40" fill-opacity="0.3" fill="#ffffff" stroke="#000000" stroke-opacity="0.3" stroke-width="4" pointer-events="all"/></g></g><g data-cell-id="34"><g><path d="M 920.57 510.33 L 883.49 633.69" fill="none" stroke="#000000" stroke-opacity="0.3" stroke-width="4" stroke-miterlimit="10" pointer-events="stroke"/></g></g><g data-cell-id="35"><g><path d="M 949.89 507.78 L 1004.11 616.22" fill="none" stroke="#000000" stroke-opacity="0.3" stroke-width="4" stroke-miterlimit="10" stroke-dasharray="12 12" pointer-events="stroke"/></g></g><g data-cell-id="15"><g><ellipse cx="932" cy="472" rx="40" ry="40" fill-opacity="0.3" fill="#ffffff" stroke="#000000" stroke-opacity="0.3" stroke-width="4" pointer-events="all"/></g></g><g data-cell-id="16"><g><ellipse cx="872" cy="672" rx="40" ry="40" fill-opacity="0.3" fill="#ffffff" stroke="#000000" stroke-opacity="0.3" stroke-width="4" pointer-events="all"/></g></g><g data-cell-id="17"><g><ellipse cx="1022" cy="652" rx="40" ry="40" fill-opacity="0.3" fill="#ffffff" stroke="#000000" stroke-opacity="0.3" stroke-width="4" pointer-events="all"/></g></g><g data-cell-id="18"><g><ellipse cx="1612" cy="432" rx="40" ry="40" fill-opacity="0.3" fill="#d4d4d4" stroke="#000000" stroke-opacity="0.3" stroke-width="4" pointer-events="all"/></g></g><g data-cell-id="38"><g><path d="M 1340.62 397.4 L 1403.37 516.6" fill="none" stroke="#000000" stroke-opacity="0.3" stroke-width="4" stroke-miterlimit="10" pointer-events="stroke"/></g></g><g data-cell-id="39"><g><path d="M 1312.89 400.95 L 1281.26 533.09" fill="none" stroke="#000000" stroke-opacity="0.3" stroke-width="4" stroke-miterlimit="10" pointer-events="stroke"/></g></g><g data-cell-id="19"><g><ellipse cx="1322" cy="362" rx="40" ry="40" fill-opacity="0.3" fill="#d4d4d4" stroke="#000000" stroke-opacity="0.3" stroke-width="4" pointer-events="all"/></g></g><g data-cell-id="20"><g><ellipse cx="1422" cy="552" rx="40" ry="40" fill-opacity="0.3" fill="#d4d4d4" stroke="#000000" stroke-opacity="0.3" stroke-width="4" pointer-events="all"/></g></g><g data-cell-id="21"><g><ellipse cx="1272" cy="572" rx="40" ry="40" fill-opacity="0.3" fill="#d4d4d4" stroke="#000000" stroke-opacity="0.3" stroke-width="4" pointer-events="all"/></g></g><g data-cell-id="43"><g><ellipse cx="332" cy="522" rx="40" ry="40" fill-opacity="0.3" fill="#ffffff" stroke="#000000" stroke-opacity="0.3" stroke-width="4" pointer-events="all"/></g></g><g data-cell-id="44"><g><ellipse cx="162" cy="422" rx="40" ry="40" fill-opacity="0.3" fill="#ffffff" stroke="#000000" stroke-opacity="0.3" stroke-width="4" pointer-events="all"/></g></g><g data-cell-id="47"><g><path d="M 819.5 582 C 729.5 582 707 652 779 666 C 707 696.8 788 764 846.5 736 C 887 792 1022 792 1067 736 C 1157 736 1157 680 1100.75 652 C 1157 596 1067 540 988.25 568 C 932 526 842 526 819.5 582 Z" fill="#ffffff" stroke="#ababab" stroke-width="4" stroke-miterlimit="10" pointer-events="all"/></g></g><g data-cell-id="48"><g><path d="M 444.5 582 C 370.5 582 352 642 411.2 654 C 352 680.4 418.6 738 466.7 714 C 500 762 611 762 648 714 C 722 714 722 666 675.75 642 C 722 594 648 546 583.25 570 C 537 534 463 534 444.5 582 Z" fill="#ffffff" stroke="#ababab" stroke-width="4" stroke-miterlimit="10" pointer-events="all"/></g></g><g data-cell-id="49"><g><path d="M 114.5 422 C 24.5 422 2 492 74 506 C 2 536.8 83 604 141.5 576 C 182 632 317 632 362 576 C 452 576 452 520 395.75 492 C 452 436 362 380 283.25 408 C 227 366 137 366 114.5 422 Z" fill="#ffffff" stroke="#ababab" stroke-width="4" stroke-miterlimit="10" pointer-events="all"/></g></g><g data-cell-id="55"><g><ellipse cx="267" cy="194.5" rx="12.5" ry="12.5" fill-opacity="0.3" fill="#ffffff" stroke="#000000" stroke-opacity="0.3" stroke-width="4" pointer-events="all"/><path d="M 267 207 L 267 248.67 M 267 215.33 L 242 215.33 M 267 215.33 L 292 215.33 M 267 248.67 L 242 282 M 267 248.67 L 292 282" fill="none" stroke="#000000" stroke-opacity="0.3" stroke-width="4" stroke-miterlimit="10" pointer-events="all"/></g></g><g data-cell-id="57"><g><ellipse cx="557" cy="244.5" rx="12.5" ry="12.5" fill-opacity="0.3" fill="#ffffff" stroke="#000000" stroke-opacity="0.3" stroke-width="4" pointer-events="all"/><path d="M 557 257 L 557 298.67 M 557 265.33 L 532 265.33 M 557 265.33 L 582 265.33 M 557 298.67 L 532 332 M 557 298.67 L 582 332" fill="none" stroke="#000000" stroke-opacity="0.3" stroke-width="4" stroke-miterlimit="10" pointer-events="all"/></g></g><g data-cell-id="58"><g><ellipse cx="937" cy="344.5" rx="12.5" ry="12.5" fill-opacity="0.3" fill="#ffffff" stroke="#000000" stroke-opacity="0.3" stroke-width="4" pointer-events="all"/><path d="M 937 357 L 937 398.67 M 937 365.33 L 912 365.33 M 937 365.33 L 962 365.33 M 937 398.67 L 912 432 M 937 398.67 L 962 432" fill="none" stroke="#000000" stroke-opacity="0.3" stroke-width="4" stroke-miterlimit="10" pointer-events="all"/></g></g><g data-cell-id="59"><g><ellipse cx="1267" cy="244.5" rx="12.5" ry="12.5" fill-opacity="0.3" fill="#ffffff" stroke="#000000" stroke-opacity="0.3" stroke-width="4" pointer-events="all"/><path d="M 1267 257 L 1267 298.67 M 1267 265.33 L 1242 265.33 M 1267 265.33 L 1292 265.33 M 1267 298.67 L 1242 332 M 1267 298.67 L 1292 332" fill="none" stroke="#000000" stroke-opacity="0.3" stroke-width="4" stroke-miterlimit="10" pointer-events="all"/></g></g><g data-cell-id="62"><g><path d="M 987.42 102 Q 1002 172 1004.67 180.01" fill="none" stroke="#ff8000" stroke-width="10" stroke-miterlimit="10" pointer-events="stroke"/><path d="M 1008.46 191.39 L 995.82 178.74 L 1004.67 180.01 L 1010.99 173.68 Z" fill="#ff8000" stroke="#ff8000" stroke-width="10" stroke-miterlimit="10" pointer-events="all"/></g></g><g data-cell-id="64"><g><path d="M 1002 56 Q 1102 72 1151.87 100.5" fill="none" stroke="#ff8000" stroke-width="10" stroke-miterlimit="10" pointer-events="stroke"/><path d="M 1162.29 106.45 L 1144.43 105.46 L 1151.87 100.5 L 1152.37 91.57 Z" fill="#ff8000" stroke="#ff8000" stroke-width="10" stroke-miterlimit="10" pointer-events="all"/></g></g><g data-cell-id="65"><g><path d="M 952 52 Q 872 52 813.7 73.86" fill="none" stroke="#ff8000" stroke-width="10" stroke-miterlimit="10" pointer-events="stroke"/><path d="M 802.47 78.07 L 814.64 64.97 L 813.7 73.86 L 820.26 79.95 Z" fill="#ff8000" stroke="#ff8000" stroke-width="10" stroke-miterlimit="10" pointer-events="all"/></g></g><g data-cell-id="50"><g><ellipse cx="977" cy="14.5" rx="12.5" ry="12.5" fill="#ffffff" stroke="#000000" stroke-width="4" pointer-events="all"/><path d="M 977 27 L 977 68.67 M 977 35.33 L 952 35.33 M 977 35.33 L 1002 35.33 M 977 68.67 L 952 102 M 977 68.67 L 1002 102" fill="none" stroke="#000000" stroke-width="4" stroke-miterlimit="10" pointer-events="all"/></g></g><g data-cell-id="52"><g><rect x="932" y="27" width="200" height="50" fill="none" stroke="none" pointer-events="all"/></g><g><g><text x="1032.000" y="63.800" text-anchor="middle" font-size="28.000px">\fontsize{21.0pt}{25.2pt}\selectfont \(\times 10\)</text></g></g></g><g data-cell-id="70"><g><rect x="732" y="162" width="180" height="60" fill="none" stroke="none" pointer-events="all"/></g><g><g><text x="822.000" y="208.000" text-anchor="middle" font-size="40.000px">\fontsize{30.0pt}{36.0pt}\selectfont \textcolor[HTML]{009900}{finished!}</text></g></g></g><g data-cell-id="74"><g><ellipse cx="1497" cy="204.5" rx="12.5" ry="12.5" fill-opacity="0.3" fill="#ffffff" stroke="#000000" stroke-opacity="0.3" stroke-width="4" pointer-events="all"/><path d="M 1497 217 L 1497 258.67 M 1497 225.33 L 1472 225.33 M 1497 225.33 L 1522 225.33 M 1497 258.67 L 1472 292 M 1497 258.67 L 1522 292" fill="none" stroke="#000000" stroke-opacity="0.3" stroke-width="4" stroke-miterlimit="10" pointer-events="all"/></g></g><g data-cell-id="78"><g><path d="M 732 192 L 1282 192 L 1282 362 L 1228.5 362 L 1084 542 L 1111.5 362 L 732 362 Z" fill="#ffffff" stroke="#000000" stroke-width="4" stroke-miterlimit="10" transform="rotate(-180,1007,367)" pointer-events="all"/></g></g><g data-cell-id="81"><g><rect x="762" y="397" width="500" height="110" fill="none" stroke="none" pointer-events="all"/></g><g><g><text x="1012.000" y="444.000" text-anchor="middle" font-size="40.000px">\fontsize{30.0pt}{36.0pt}\selectfont \textbf{Assign searchers evenly}</text><text x="1012.000" y="492.000" text-anchor="middle" font-size="40.000px">\fontsize{30.0pt}{36.0pt}\selectfont \textbf{to \textcolor[HTML]{FF8000}{unfinished} subtrees.}</text></g></g></g></g></g></g><switch><g requiredFeatures="http://www.w3.org/TR/SVG11/feature#Extensibility"/><a transform="translate(0,-5)" xlink:href="https://www.drawio.com/doc/faq/svg-export-text-problems" target="_blank"><text text-anchor="middle" font-size="10px" x="50%" y="100%">Text is not SVG - cannot display</text></a></switch></svg>